<svg width="32" height="32" viewBox="0 0 32 32" fill="none" xmlns="http://www.w3.org/2000/svg">
  <rect width="32" height="32" rx="8" fill="url(#gradient)"/>
  <!-- Letter B - Stylized -->
  <path d="M9 6H16C19.3137 6 22 8.68629 22 12C22 13.6569 21.2041 15.1421 20 16.1292C21.2041 17.1163 22 18.6015 22 20.2584C22 23.5711 19.3137 26.2584 16 26.2584H9V6Z" stroke="white" stroke-width="2" fill="none"/>
  <path d="M11.5 9.5H16C17.3807 9.5 18.5 10.6193 18.5 12C18.5 13.3807 17.3807 14.5 16 14.5H11.5V9.5Z" fill="white" opacity="0.9"/>
  <path d="M11.5 17.5H16C17.3807 17.5 18.5 18.6193 18.5 20C18.5 21.3807 17.3807 22.5 16 22.5H11.5V17.5Z" fill="white" opacity="0.9"/>
  <defs>
    <linearGradient id="gradient" x1="0" y1="0" x2="32" y2="32" gradientUnits="userSpaceOnUse">
      <stop stop-color="#2563EB"/>
      <stop offset="0.5" stop-color="#9333EA"/>
      <stop offset="1" stop-color="#EC4899"/>
    </linearGradient>
  </defs>
</svg>
